<svg width="1011" height="710" viewBox="0 0 1011 710" fill="none" xmlns="http://www.w3.org/2000/svg">
<path d="M2.616 86.2H15.288V88.24H4.992V93.04H10.224C12.224 93.04 13.744 93.456 14.784 94.288C15.824 95.12 16.344 96.32 16.344 97.888C16.344 99.536 15.776 100.8 14.64 101.68C13.52 102.56 11.912 103 9.816 103H2.616L2.616 86.2ZM9.72 101.104C11.096 101.104 12.144 100.84 12.864 100.312C13.584 99.784 13.944 99.008 13.944 97.984C13.944 95.952 12.536 94.936 9.72 94.936H4.992V101.104H9.72ZM26.5307 90.16C27.7627 90.16 28.8667 90.432 29.8427 90.976C30.8187 91.52 31.5787 92.28 32.1227 93.256C32.6827 94.232 32.9627 95.36 32.9627 96.64C32.9627 97.92 32.6827 99.056 32.1227 100.048C31.5787 101.024 30.8187 101.784 29.8427 102.328C28.8667 102.872 27.7627 103.144 26.5307 103.144C25.6187 103.144 24.7787 102.968 24.0107 102.616C23.2587 102.264 22.6187 101.752 22.0907 101.08V107.656H19.7867V90.28H21.9947V92.296C22.5067 91.592 23.1547 91.064 23.9387 90.712C24.7227 90.344 25.5867 90.16 26.5307 90.16ZM26.3387 101.128C27.1547 101.128 27.8827 100.944 28.5227 100.576C29.1787 100.192 29.6907 99.664 30.0587 98.992C30.4427 98.304 30.6347 97.52 30.6347 96.64C30.6347 95.76 30.4427 94.984 30.0587 94.312C29.6907 93.624 29.1787 93.096 28.5227 92.728C27.8827 92.36 27.1547 92.176 26.3387 92.176C25.5387 92.176 24.8107 92.368 24.1547 92.752C23.5147 93.12 23.0027 93.64 22.6187 94.312C22.2507 94.984 22.0667 95.76 22.0667 96.64C22.0667 97.52 22.2507 98.304 22.6187 98.992C22.9867 99.664 23.4987 100.192 24.1547 100.576C24.8107 100.944 25.5387 101.128 26.3387 101.128ZM36.3101 90.28H38.6141V99.544L46.4141 90.28H48.5021V103H46.1981V93.736L38.4221 103H36.3101V90.28ZM69.0302 96.616C69.0302 98.584 68.3742 100.136 67.0622 101.272C65.7502 102.408 63.9022 103.04 61.5182 103.168V107.656H59.2622V103.168C56.8782 103.04 55.0302 102.416 53.7182 101.296C52.4222 100.16 51.7742 98.6 51.7742 96.616C51.7742 94.648 52.4222 93.112 53.7182 92.008C55.0142 90.904 56.8622 90.288 59.2622 90.16V85.192H61.5182V90.16C63.9022 90.288 65.7502 90.912 67.0622 92.032C68.3742 93.136 69.0302 94.664 69.0302 96.616ZM54.0542 96.616C54.0542 97.976 54.4862 99.04 55.3502 99.808C56.2302 100.576 57.5342 101.016 59.2622 101.128V92.2C57.5182 92.312 56.2142 92.744 55.3502 93.496C54.4862 94.248 54.0542 95.288 54.0542 96.616ZM61.5182 101.152C65.0062 100.88 66.7502 99.368 66.7502 96.616C66.7502 95.272 66.3102 94.232 65.4302 93.496C64.5502 92.744 63.2462 92.312 61.5182 92.2V101.152ZM72.2867 90.28H74.5907V99.544L82.3907 90.28H84.4787V103H82.1747V93.736L74.3987 103H72.2867V90.28ZM88.9508 90.28H91.2548V95.68H98.5028V90.28H100.807V103H98.5028V97.672L91.2548 97.672V103H88.9508V90.28ZM114.647 92.296H107.591V103H105.287V90.28H114.647V92.296Z" fill="#333333"/>
<circle cx="58" cy="35" r="33.5" fill="white" stroke="#333333" stroke-width="3"/>
<path d="M66.084 44.12V47H53.376V44.12H58.272V24.5C58.08 24.788 57.756 25.112 57.3 25.472C56.868 25.808 56.376 26.144 55.824 26.48C55.296 26.792 54.732 27.056 54.132 27.272C53.556 27.488 53.028 27.596 52.548 27.596V24.644C53.196 24.644 53.844 24.476 54.492 24.14C55.164 23.78 55.776 23.384 56.328 22.952C56.88 22.52 57.336 22.124 57.696 21.764C58.056 21.404 58.248 21.2 58.272 21.152H61.512V44.12H66.084Z" fill="#333333"/>
<path d="M771.656 168.24C772.712 168.528 773.536 169.032 774.128 169.752C774.72 170.456 775.016 171.304 775.016 172.296C775.016 173.288 774.696 174.16 774.056 174.912C773.432 175.648 772.592 176.216 771.536 176.616C770.496 177 769.36 177.192 768.128 177.192C767.008 177.192 765.896 177.024 764.792 176.688C763.688 176.352 762.68 175.848 761.768 175.176L762.608 173.4C763.344 173.976 764.168 174.408 765.08 174.696C765.992 174.984 766.912 175.128 767.84 175.128C769.184 175.128 770.312 174.848 771.224 174.288C772.136 173.712 772.592 172.928 772.592 171.936C772.592 171.088 772.248 170.44 771.56 169.992C770.872 169.528 769.904 169.296 768.656 169.296H764.912V167.352H768.488C769.56 167.352 770.392 167.136 770.984 166.704C771.592 166.256 771.896 165.64 771.896 164.856C771.896 163.976 771.504 163.28 770.72 162.768C769.936 162.256 768.944 162 767.744 162C766.96 162 766.16 162.112 765.344 162.336C764.544 162.56 763.784 162.896 763.064 163.344L762.296 161.376C763.144 160.896 764.04 160.536 764.984 160.296C765.928 160.056 766.872 159.936 767.816 159.936C769 159.936 770.088 160.12 771.08 160.488C772.072 160.856 772.856 161.392 773.432 162.096C774.024 162.8 774.32 163.624 774.32 164.568C774.32 165.416 774.08 166.16 773.6 166.8C773.136 167.44 772.488 167.92 771.656 168.24ZM783.166 164.16C784.926 164.16 786.27 164.592 787.198 165.456C788.142 166.32 788.614 167.608 788.614 169.32V177H786.43V175.32C786.046 175.912 785.494 176.368 784.774 176.688C784.07 176.992 783.23 177.144 782.254 177.144C780.83 177.144 779.686 176.8 778.822 176.112C777.974 175.424 777.55 174.52 777.55 173.4C777.55 172.28 777.958 171.384 778.774 170.712C779.59 170.024 780.886 169.68 782.662 169.68H786.31V169.224C786.31 168.232 786.022 167.472 785.446 166.944C784.87 166.416 784.022 166.152 782.902 166.152C782.15 166.152 781.414 166.28 780.694 166.536C779.974 166.776 779.366 167.104 778.87 167.52L777.91 165.792C778.566 165.264 779.35 164.864 780.262 164.592C781.174 164.304 782.142 164.16 783.166 164.16ZM782.638 175.368C783.518 175.368 784.278 175.176 784.918 174.792C785.558 174.392 786.022 173.832 786.31 173.112V171.336H782.758C780.806 171.336 779.83 171.992 779.83 173.304C779.83 173.944 780.078 174.448 780.574 174.816C781.07 175.184 781.758 175.368 782.638 175.368ZM797.707 171.624H795.067V177H792.763V164.28H795.067V169.656H797.755L801.883 164.28H804.355L799.531 170.4L804.691 177H801.979L797.707 171.624ZM818.027 164.28V177H815.723V166.296H810.251L810.107 169.128C810.027 170.84 809.875 172.272 809.651 173.424C809.427 174.56 809.059 175.472 808.547 176.16C808.035 176.848 807.323 177.192 806.411 177.192C805.995 177.192 805.523 177.12 804.995 176.976L805.139 175.032C805.347 175.08 805.539 175.104 805.715 175.104C806.355 175.104 806.835 174.824 807.155 174.264C807.475 173.704 807.683 173.04 807.779 172.272C807.875 171.504 807.963 170.408 808.043 168.984L808.259 164.28H818.027ZM833.738 164.16C834.97 164.16 836.074 164.44 837.05 165C838.026 165.544 838.794 166.312 839.354 167.304C839.914 168.28 840.194 169.392 840.194 170.64C840.194 171.888 839.914 173.008 839.354 174C838.794 174.976 838.026 175.744 837.05 176.304C836.074 176.864 834.97 177.144 833.738 177.144C832.618 177.144 831.602 176.912 830.69 176.448C829.778 175.984 829.026 175.336 828.434 174.504C827.858 173.656 827.498 172.696 827.354 171.624H824.786V177H822.482V164.28H824.786V169.488H827.378C827.538 168.432 827.906 167.504 828.482 166.704C829.074 165.888 829.818 165.264 830.714 164.832C831.626 164.384 832.634 164.16 833.738 164.16ZM833.738 175.128C834.522 175.128 835.226 174.944 835.85 174.576C836.49 174.208 836.994 173.688 837.362 173.016C837.73 172.328 837.914 171.536 837.914 170.64C837.914 169.76 837.73 168.984 837.362 168.312C836.994 167.624 836.49 167.096 835.85 166.728C835.226 166.36 834.522 166.176 833.738 166.176C832.954 166.176 832.242 166.36 831.602 166.728C830.962 167.096 830.458 167.624 830.09 168.312C829.738 168.984 829.562 169.76 829.562 170.64C829.562 171.536 829.738 172.328 830.09 173.016C830.458 173.688 830.962 174.208 831.602 174.576C832.242 174.944 832.954 175.128 833.738 175.128ZM853.657 164.28V177H851.353V171.864C849.977 172.504 848.609 172.824 847.249 172.824C845.665 172.824 844.441 172.456 843.577 171.72C842.713 170.984 842.281 169.88 842.281 168.408V164.28H844.585V168.264C844.585 169.144 844.857 169.808 845.401 170.256C845.961 170.704 846.737 170.928 847.729 170.928C848.849 170.928 850.057 170.648 851.353 170.088V164.28H853.657ZM869.626 170.712C869.626 170.888 869.61 171.12 869.578 171.408H859.258C859.402 172.528 859.89 173.432 860.722 174.12C861.57 174.792 862.618 175.128 863.866 175.128C865.386 175.128 866.61 174.616 867.538 173.592L868.81 175.08C868.234 175.752 867.514 176.264 866.65 176.616C865.802 176.968 864.85 177.144 863.794 177.144C862.45 177.144 861.258 176.872 860.218 176.328C859.178 175.768 858.37 174.992 857.794 174C857.234 173.008 856.954 171.888 856.954 170.64C856.954 169.408 857.226 168.296 857.77 167.304C858.33 166.312 859.09 165.544 860.05 165C861.026 164.44 862.122 164.16 863.338 164.16C864.554 164.16 865.634 164.44 866.578 165C867.538 165.544 868.282 166.312 868.81 167.304C869.354 168.296 869.626 169.432 869.626 170.712ZM863.338 166.104C862.234 166.104 861.306 166.44 860.554 167.112C859.818 167.784 859.386 168.664 859.258 169.752H867.418C867.29 168.68 866.85 167.808 866.098 167.136C865.362 166.448 864.442 166.104 863.338 166.104ZM873.201 164.28H875.505V169.68H882.753V164.28H885.057V177H882.753V171.672H875.505V177H873.201V164.28ZM889.537 164.28H891.841V173.544L899.641 164.28H901.729V177H899.425V167.736L891.649 177H889.537V164.28ZM917.697 170.712C917.697 170.888 917.681 171.12 917.649 171.408H907.329C907.473 172.528 907.961 173.432 908.793 174.12C909.641 174.792 910.689 175.128 911.937 175.128C913.457 175.128 914.681 174.616 915.609 173.592L916.881 175.08C916.305 175.752 915.585 176.264 914.721 176.616C913.873 176.968 912.921 177.144 911.865 177.144C910.521 177.144 909.329 176.872 908.289 176.328C907.249 175.768 906.441 174.992 905.865 174C905.305 173.008 905.025 171.888 905.025 170.64C905.025 169.408 905.297 168.296 905.841 167.304C906.401 166.312 907.161 165.544 908.121 165C909.097 164.44 910.193 164.16 911.409 164.16C912.625 164.16 913.705 164.44 914.649 165C915.609 165.544 916.353 166.312 916.881 167.304C917.425 168.296 917.697 169.432 917.697 170.712ZM911.409 166.104C910.305 166.104 909.377 166.44 908.625 167.112C907.889 167.784 907.457 168.664 907.329 169.752H915.489C915.361 168.68 914.921 167.808 914.169 167.136C913.433 166.448 912.513 166.104 911.409 166.104ZM776.168 203.984V208.952H774.008V206H763.376V208.952H761.192V203.984H761.864C762.68 203.936 763.24 203.36 763.544 202.256C763.848 201.152 764.056 199.592 764.168 197.576L764.36 193.28H774.224V203.984H776.168ZM766.28 197.744C766.216 199.344 766.08 200.672 765.872 201.728C765.68 202.768 765.32 203.52 764.792 203.984H771.92V195.296H766.4L766.28 197.744ZM784.618 206.144C783.354 206.144 782.218 205.864 781.21 205.304C780.202 204.744 779.41 203.976 778.834 203C778.274 202.008 777.994 200.888 777.994 199.64C777.994 198.392 778.274 197.28 778.834 196.304C779.41 195.312 780.202 194.544 781.21 194C782.218 193.44 783.354 193.16 784.618 193.16C785.882 193.16 787.01 193.44 788.002 194C789.01 194.544 789.794 195.312 790.354 196.304C790.93 197.28 791.218 198.392 791.218 199.64C791.218 200.888 790.93 202.008 790.354 203C789.794 203.976 789.01 204.744 788.002 205.304C787.01 205.864 785.882 206.144 784.618 206.144ZM784.618 204.128C785.434 204.128 786.162 203.944 786.802 203.576C787.458 203.192 787.97 202.664 788.338 201.992C788.706 201.304 788.89 200.52 788.89 199.64C788.89 198.76 788.706 197.984 788.338 197.312C787.97 196.624 787.458 196.096 786.802 195.728C786.162 195.36 785.434 195.176 784.618 195.176C783.802 195.176 783.066 195.36 782.41 195.728C781.77 196.096 781.258 196.624 780.874 197.312C780.506 197.984 780.322 198.76 780.322 199.64C780.322 200.52 780.506 201.304 780.874 201.992C781.258 202.664 781.77 203.192 782.41 203.576C783.066 203.944 783.802 204.128 784.618 204.128ZM803.905 195.296H796.849V206H794.545V193.28H803.905V195.296ZM811.149 206.144C809.885 206.144 808.749 205.864 807.741 205.304C806.733 204.744 805.941 203.976 805.365 203C804.805 202.008 804.525 200.888 804.525 199.64C804.525 198.392 804.805 197.28 805.365 196.304C805.941 195.312 806.733 194.544 807.741 194C808.749 193.44 809.885 193.16 811.149 193.16C812.413 193.16 813.541 193.44 814.533 194C815.541 194.544 816.325 195.312 816.885 196.304C817.461 197.28 817.749 198.392 817.749 199.64C817.749 200.888 817.461 202.008 816.885 203C816.325 203.976 815.541 204.744 814.533 205.304C813.541 205.864 812.413 206.144 811.149 206.144ZM811.149 204.128C811.965 204.128 812.693 203.944 813.333 203.576C813.989 203.192 814.501 202.664 814.869 201.992C815.237 201.304 815.421 200.52 815.421 199.64C815.421 198.76 815.237 197.984 814.869 197.312C814.501 196.624 813.989 196.096 813.333 195.728C812.693 195.36 811.965 195.176 811.149 195.176C810.333 195.176 809.597 195.36 808.941 195.728C808.301 196.096 807.789 196.624 807.405 197.312C807.037 197.984 806.853 198.76 806.853 199.64C806.853 200.52 807.037 201.304 807.405 201.992C807.789 202.664 808.301 203.192 808.941 203.576C809.597 203.944 810.333 204.128 811.149 204.128ZM829.74 199.4C831.388 199.816 832.212 200.848 832.212 202.496C832.212 203.616 831.788 204.48 830.94 205.088C830.108 205.696 828.86 206 827.196 206H821.076V193.28H826.98C828.484 193.28 829.66 193.568 830.508 194.144C831.356 194.704 831.78 195.504 831.78 196.544C831.78 197.216 831.596 197.8 831.228 198.296C830.876 198.776 830.38 199.144 829.74 199.4ZM823.332 198.752H826.788C827.668 198.752 828.332 198.592 828.78 198.272C829.244 197.952 829.476 197.488 829.476 196.88C829.476 195.664 828.58 195.056 826.788 195.056H823.332V198.752ZM827.028 204.224C827.988 204.224 828.708 204.072 829.188 203.768C829.668 203.464 829.908 202.992 829.908 202.352C829.908 201.696 829.684 201.208 829.236 200.888C828.804 200.568 828.116 200.408 827.172 200.408H823.332V204.224H827.028ZM841.266 206.144C840.002 206.144 838.866 205.864 837.858 205.304C836.85 204.744 836.058 203.976 835.482 203C834.922 202.008 834.642 200.888 834.642 199.64C834.642 198.392 834.922 197.28 835.482 196.304C836.058 195.312 836.85 194.544 837.858 194C838.866 193.44 840.002 193.16 841.266 193.16C842.53 193.16 843.658 193.44 844.65 194C845.658 194.544 846.442 195.312 847.002 196.304C847.578 197.28 847.866 198.392 847.866 199.64C847.866 200.888 847.578 202.008 847.002 203C846.442 203.976 845.658 204.744 844.65 205.304C843.658 205.864 842.53 206.144 841.266 206.144ZM841.266 204.128C842.082 204.128 842.81 203.944 843.45 203.576C844.106 203.192 844.618 202.664 844.986 201.992C845.354 201.304 845.538 200.52 845.538 199.64C845.538 198.76 845.354 197.984 844.986 197.312C844.618 196.624 844.106 196.096 843.45 195.728C842.81 195.36 842.082 195.176 841.266 195.176C840.45 195.176 839.714 195.36 839.058 195.728C838.418 196.096 837.906 196.624 837.522 197.312C837.154 197.984 836.97 198.76 836.97 199.64C836.97 200.52 837.154 201.304 837.522 201.992C837.906 202.664 838.418 203.192 839.058 203.576C839.714 203.944 840.45 204.128 841.266 204.128ZM857.937 193.16C859.169 193.16 860.273 193.432 861.249 193.976C862.225 194.52 862.985 195.28 863.529 196.256C864.089 197.232 864.369 198.36 864.369 199.64C864.369 200.92 864.089 202.056 863.529 203.048C862.985 204.024 862.225 204.784 861.249 205.328C860.273 205.872 859.169 206.144 857.937 206.144C857.025 206.144 856.185 205.968 855.417 205.616C854.665 205.264 854.025 204.752 853.497 204.08V210.656H851.193V193.28H853.401V195.296C853.913 194.592 854.561 194.064 855.345 193.712C856.129 193.344 856.993 193.16 857.937 193.16ZM857.745 204.128C858.561 204.128 859.289 203.944 859.929 203.576C860.585 203.192 861.097 202.664 861.465 201.992C861.849 201.304 862.041 200.52 862.041 199.64C862.041 198.76 861.849 197.984 861.465 197.312C861.097 196.624 860.585 196.096 859.929 195.728C859.289 195.36 858.561 195.176 857.745 195.176C856.945 195.176 856.217 195.368 855.561 195.752C854.921 196.12 854.409 196.64 854.025 197.312C853.657 197.984 853.473 198.76 853.473 199.64C853.473 200.52 853.657 201.304 854.025 201.992C854.393 202.664 854.905 203.192 855.561 203.576C856.217 203.944 856.945 204.128 857.745 204.128ZM872.135 193.16C873.895 193.16 875.239 193.592 876.167 194.456C877.111 195.32 877.583 196.608 877.583 198.32V206H875.399V204.32C875.015 204.912 874.463 205.368 873.743 205.688C873.039 205.992 872.199 206.144 871.223 206.144C869.799 206.144 868.655 205.8 867.791 205.112C866.943 204.424 866.519 203.52 866.519 202.4C866.519 201.28 866.927 200.384 867.743 199.712C868.559 199.024 869.855 198.68 871.631 198.68H875.279V198.224C875.279 197.232 874.991 196.472 874.415 195.944C873.839 195.416 872.991 195.152 871.871 195.152C871.119 195.152 870.383 195.28 869.663 195.536C868.943 195.776 868.335 196.104 867.839 196.52L866.879 194.792C867.535 194.264 868.319 193.864 869.231 193.592C870.143 193.304 871.111 193.16 872.135 193.16ZM871.607 204.368C872.487 204.368 873.247 204.176 873.887 203.792C874.527 203.392 874.991 202.832 875.279 202.112V200.336H871.727C869.775 200.336 868.799 200.992 868.799 202.304C868.799 202.944 869.047 203.448 869.543 203.816C870.039 204.184 870.727 204.368 871.607 204.368Z" fill="#333333"/>
<path d="M92.0003 32.9996C92.0003 32.9996 415 32.9994 562.5 32.9996C637.854 32.9997 706.476 90 713 171C719.604 253 658 331.5 562.5 331.5C417.037 331.5 262.5 333 198 333C69.0002 344 55.5001 466 55.5001 466C55.5001 466 37.5 620.5 210.5 635H677" stroke="#333333" stroke-width="3"/>
<path d="M357.168 83.2C359.344 83.2 361.056 83.72 362.304 84.76C363.552 85.8 364.176 87.232 364.176 89.056C364.176 90.88 363.552 92.312 362.304 93.352C361.056 94.392 359.344 94.912 357.168 94.912H353.016V100H350.616V83.2H357.168ZM357.096 92.824C358.616 92.824 359.776 92.504 360.576 91.864C361.376 91.208 361.776 90.272 361.776 89.056C361.776 87.84 361.376 86.912 360.576 86.272C359.776 85.616 358.616 85.288 357.096 85.288H353.016V92.824H357.096ZM371.549 87.16C373.309 87.16 374.653 87.592 375.581 88.456C376.525 89.32 376.997 90.608 376.997 92.32V100H374.813V98.32C374.429 98.912 373.877 99.368 373.157 99.688C372.453 99.992 371.613 100.144 370.637 100.144C369.213 100.144 368.069 99.8 367.205 99.112C366.357 98.424 365.933 97.52 365.933 96.4C365.933 95.28 366.341 94.384 367.157 93.712C367.973 93.024 369.269 92.68 371.045 92.68H374.693V92.224C374.693 91.232 374.405 90.472 373.829 89.944C373.253 89.416 372.405 89.152 371.285 89.152C370.533 89.152 369.797 89.28 369.077 89.536C368.357 89.776 367.749 90.104 367.253 90.52L366.293 88.792C366.949 88.264 367.733 87.864 368.645 87.592C369.557 87.304 370.525 87.16 371.549 87.16ZM371.021 98.368C371.901 98.368 372.661 98.176 373.301 97.792C373.941 97.392 374.405 96.832 374.693 96.112V94.336H371.141C369.189 94.336 368.213 94.992 368.213 96.304C368.213 96.944 368.461 97.448 368.957 97.816C369.453 98.184 370.141 98.368 371.021 98.368ZM386.69 100.144C385.394 100.144 384.234 99.864 383.21 99.304C382.202 98.744 381.41 97.976 380.834 97C380.258 96.008 379.97 94.888 379.97 93.64C379.97 92.392 380.258 91.28 380.834 90.304C381.41 89.312 382.202 88.544 383.21 88C384.234 87.44 385.394 87.16 386.69 87.16C387.842 87.16 388.866 87.392 389.762 87.856C390.674 88.32 391.378 88.992 391.874 89.872L390.122 91C389.722 90.392 389.226 89.936 388.634 89.632C388.042 89.328 387.386 89.176 386.666 89.176C385.834 89.176 385.082 89.36 384.41 89.728C383.754 90.096 383.234 90.624 382.85 91.312C382.482 91.984 382.298 92.76 382.298 93.64C382.298 94.536 382.482 95.328 382.85 96.016C383.234 96.688 383.754 97.208 384.41 97.576C385.082 97.944 385.834 98.128 386.666 98.128C387.386 98.128 388.042 97.976 388.634 97.672C389.226 97.368 389.722 96.912 390.122 96.304L391.874 97.408C391.378 98.288 390.674 98.968 389.762 99.448C388.866 99.912 387.842 100.144 386.69 100.144ZM400.214 100.144C398.918 100.144 397.758 99.864 396.734 99.304C395.726 98.744 394.934 97.976 394.358 97C393.782 96.008 393.494 94.888 393.494 93.64C393.494 92.392 393.782 91.28 394.358 90.304C394.934 89.312 395.726 88.544 396.734 88C397.758 87.44 398.918 87.16 400.214 87.16C401.366 87.16 402.39 87.392 403.286 87.856C404.198 88.32 404.902 88.992 405.398 89.872L403.646 91C403.246 90.392 402.75 89.936 402.158 89.632C401.566 89.328 400.91 89.176 400.19 89.176C399.358 89.176 398.606 89.36 397.934 89.728C397.278 90.096 396.758 90.624 396.374 91.312C396.006 91.984 395.822 92.76 395.822 93.64C395.822 94.536 396.006 95.328 396.374 96.016C396.758 96.688 397.278 97.208 397.934 97.576C398.606 97.944 399.358 98.128 400.19 98.128C400.91 98.128 401.566 97.976 402.158 97.672C402.75 97.368 403.246 96.912 403.646 96.304L405.398 97.408C404.902 98.288 404.198 98.968 403.286 99.448C402.39 99.912 401.366 100.144 400.214 100.144ZM418.532 87.28V100H416.228V94.864C414.852 95.504 413.484 95.824 412.124 95.824C410.54 95.824 409.316 95.456 408.452 94.72C407.588 93.984 407.156 92.88 407.156 91.408V87.28H409.46V91.264C409.46 92.144 409.732 92.808 410.276 93.256C410.836 93.704 411.612 93.928 412.604 93.928C413.724 93.928 414.932 93.648 416.228 93.088V87.28H418.532ZM434.501 93.712C434.501 93.888 434.485 94.12 434.453 94.408H424.133C424.277 95.528 424.765 96.432 425.597 97.12C426.445 97.792 427.493 98.128 428.741 98.128C430.261 98.128 431.485 97.616 432.413 96.592L433.685 98.08C433.109 98.752 432.389 99.264 431.525 99.616C430.677 99.968 429.725 100.144 428.669 100.144C427.325 100.144 426.133 99.872 425.093 99.328C424.053 98.768 423.245 97.992 422.669 97C422.109 96.008 421.829 94.888 421.829 93.64C421.829 92.408 422.101 91.296 422.645 90.304C423.205 89.312 423.965 88.544 424.925 88C425.901 87.44 426.997 87.16 428.213 87.16C429.429 87.16 430.509 87.44 431.453 88C432.413 88.544 433.157 89.312 433.685 90.304C434.229 91.296 434.501 92.432 434.501 93.712ZM428.213 89.104C427.109 89.104 426.181 89.44 425.429 90.112C424.693 90.784 424.261 91.664 424.133 92.752H432.293C432.165 91.68 431.725 90.808 430.973 90.136C430.237 89.448 429.317 89.104 428.213 89.104ZM447.017 89.296H442.361V100H440.057V89.296H435.401V87.28H447.017V89.296ZM355.776 129.144C354.48 129.144 353.32 128.864 352.296 128.304C351.288 127.744 350.496 126.976 349.92 126C349.344 125.008 349.056 123.888 349.056 122.64C349.056 121.392 349.344 120.28 349.92 119.304C350.496 118.312 351.288 117.544 352.296 117C353.32 116.44 354.48 116.16 355.776 116.16C356.928 116.16 357.952 116.392 358.848 116.856C359.76 117.32 360.464 117.992 360.96 118.872L359.208 120C358.808 119.392 358.312 118.936 357.72 118.632C357.128 118.328 356.472 118.176 355.752 118.176C354.92 118.176 354.168 118.36 353.496 118.728C352.84 119.096 352.32 119.624 351.936 120.312C351.568 120.984 351.384 121.76 351.384 122.64C351.384 123.536 351.568 124.328 351.936 125.016C352.32 125.688 352.84 126.208 353.496 126.576C354.168 126.944 354.92 127.128 355.752 127.128C356.472 127.128 357.128 126.976 357.72 126.672C358.312 126.368 358.808 125.912 359.208 125.304L360.96 126.408C360.464 127.288 359.76 127.968 358.848 128.448C357.952 128.912 356.928 129.144 355.776 129.144ZM373.259 118.296H368.603V129H366.299V118.296H361.643V116.28H373.259V118.296ZM380.5 129.144C379.236 129.144 378.1 128.864 377.092 128.304C376.084 127.744 375.292 126.976 374.716 126C374.156 125.008 373.876 123.888 373.876 122.64C373.876 121.392 374.156 120.28 374.716 119.304C375.292 118.312 376.084 117.544 377.092 117C378.1 116.44 379.236 116.16 380.5 116.16C381.764 116.16 382.892 116.44 383.884 117C384.892 117.544 385.676 118.312 386.236 119.304C386.812 120.28 387.1 121.392 387.1 122.64C387.1 123.888 386.812 125.008 386.236 126C385.676 126.976 384.892 127.744 383.884 128.304C382.892 128.864 381.764 129.144 380.5 129.144ZM380.5 127.128C381.316 127.128 382.044 126.944 382.684 126.576C383.34 126.192 383.852 125.664 384.22 124.992C384.588 124.304 384.772 123.52 384.772 122.64C384.772 121.76 384.588 120.984 384.22 120.312C383.852 119.624 383.34 119.096 382.684 118.728C382.044 118.36 381.316 118.176 380.5 118.176C379.684 118.176 378.948 118.36 378.292 118.728C377.652 119.096 377.14 119.624 376.756 120.312C376.388 120.984 376.204 121.76 376.204 122.64C376.204 123.52 376.388 124.304 376.756 124.992C377.14 125.664 377.652 126.192 378.292 126.576C378.948 126.944 379.684 127.128 380.5 127.128ZM390.427 116.28H392.731V125.544L400.531 116.28H402.619V129H400.315V119.736L392.539 129H390.427V116.28ZM421.755 116.28V129H419.667V119.712L414.915 127.56H413.907L409.203 119.688V129H407.091V116.28H409.467L414.459 124.872L419.595 116.28H421.755ZM431.688 129.144C430.424 129.144 429.288 128.864 428.28 128.304C427.272 127.744 426.48 126.976 425.904 126C425.344 125.008 425.064 123.888 425.064 122.64C425.064 121.392 425.344 120.28 425.904 119.304C426.48 118.312 427.272 117.544 428.28 117C429.288 116.44 430.424 116.16 431.688 116.16C432.952 116.16 434.08 116.44 435.072 117C436.08 117.544 436.864 118.312 437.424 119.304C438 120.28 438.288 121.392 438.288 122.64C438.288 123.888 438 125.008 437.424 126C436.864 126.976 436.08 127.744 435.072 128.304C434.08 128.864 432.952 129.144 431.688 129.144ZM431.688 127.128C432.504 127.128 433.232 126.944 433.872 126.576C434.528 126.192 435.04 125.664 435.408 124.992C435.776 124.304 435.96 123.52 435.96 122.64C435.96 121.76 435.776 120.984 435.408 120.312C435.04 119.624 434.528 119.096 433.872 118.728C433.232 118.36 432.504 118.176 431.688 118.176C430.872 118.176 430.136 118.36 429.48 118.728C428.84 119.096 428.328 119.624 427.944 120.312C427.576 120.984 427.392 121.76 427.392 122.64C427.392 123.52 427.576 124.304 427.944 124.992C428.328 125.664 428.84 126.192 429.48 126.576C430.136 126.944 430.872 127.128 431.688 127.128ZM447.159 129.144C445.863 129.144 444.703 128.864 443.679 128.304C442.671 127.744 441.879 126.976 441.303 126C440.727 125.008 440.439 123.888 440.439 122.64C440.439 121.392 440.727 120.28 441.303 119.304C441.879 118.312 442.671 117.544 443.679 117C444.703 116.44 445.863 116.16 447.159 116.16C448.311 116.16 449.335 116.392 450.231 116.856C451.143 117.32 451.847 117.992 452.343 118.872L450.591 120C450.191 119.392 449.695 118.936 449.103 118.632C448.511 118.328 447.855 118.176 447.135 118.176C446.303 118.176 445.551 118.36 444.879 118.728C444.223 119.096 443.703 119.624 443.319 120.312C442.951 120.984 442.767 121.76 442.767 122.64C442.767 123.536 442.951 124.328 443.319 125.016C443.703 125.688 444.223 126.208 444.879 126.576C445.551 126.944 446.303 127.128 447.135 127.128C447.855 127.128 448.511 126.976 449.103 126.672C449.695 126.368 450.191 125.912 450.591 125.304L452.343 126.408C451.847 127.288 451.143 127.968 450.231 128.448C449.335 128.912 448.311 129.144 447.159 129.144ZM464.642 118.296H459.986V129H457.682V118.296H453.026V116.28H464.642V118.296ZM466.998 116.28H469.302V125.544L477.102 116.28H479.19V129H476.886V119.736L469.11 129H466.998V116.28Z" fill="#333333"/>
<circle cx="383" cy="35" r="33.5" fill="white" stroke="#333333" stroke-width="3"/>
<path d="M373.656 47C373.656 45.32 373.8 43.868 374.088 42.644C374.376 41.42 374.808 40.352 375.384 39.44C375.96 38.528 376.668 37.736 377.508 37.064C378.372 36.392 379.368 35.78 380.496 35.228C381.288 34.844 382.116 34.472 382.98 34.112C383.844 33.728 384.624 33.308 385.32 32.852C386.016 32.372 386.592 31.808 387.048 31.16C387.504 30.488 387.732 29.648 387.732 28.64C387.732 28.016 387.624 27.428 387.408 26.876C387.216 26.324 386.916 25.844 386.508 25.436C386.1 25.004 385.584 24.668 384.96 24.428C384.36 24.188 383.64 24.068 382.8 24.068C381.96 24.068 381.18 24.188 380.46 24.428C379.74 24.644 379.092 24.932 378.516 25.292C377.94 25.628 377.424 26 376.968 26.408C376.536 26.792 376.176 27.164 375.888 27.524L373.836 25.472C374.028 25.232 374.364 24.872 374.844 24.392C375.348 23.912 375.984 23.432 376.752 22.952C377.544 22.448 378.468 22.016 379.524 21.656C380.58 21.296 381.78 21.116 383.124 21.116C384.468 21.116 385.644 21.32 386.652 21.728C387.66 22.112 388.5 22.64 389.172 23.312C389.868 23.984 390.384 24.776 390.72 25.688C391.08 26.6 391.26 27.56 391.26 28.568C391.26 29.768 391.044 30.8 390.612 31.664C390.18 32.504 389.616 33.236 388.92 33.86C388.248 34.484 387.48 35.036 386.616 35.516C385.752 35.972 384.876 36.404 383.988 36.812C382.764 37.388 381.744 37.94 380.928 38.468C380.136 38.996 379.488 39.548 378.984 40.124C378.504 40.676 378.168 41.276 377.976 41.924C377.784 42.572 377.688 43.304 377.688 44.12H391.296V47H373.656Z" fill="#333333"/>
<circle cx="711" cy="183" r="33.5" fill="white" stroke="#333333" stroke-width="3"/>
<path d="M710.116 195.324C709.012 195.324 707.98 195.192 707.02 194.928C706.084 194.664 705.244 194.292 704.5 193.812C703.756 193.308 703.132 192.708 702.628 192.012C702.148 191.316 701.824 190.536 701.656 189.672L703.456 187.764C703.504 188.292 703.696 188.832 704.032 189.384C704.368 189.936 704.812 190.44 705.364 190.896C705.94 191.328 706.624 191.688 707.416 191.976C708.208 192.24 709.096 192.372 710.08 192.372C710.896 192.372 711.664 192.264 712.384 192.048C713.104 191.832 713.728 191.532 714.256 191.148C714.808 190.764 715.228 190.296 715.516 189.744C715.828 189.192 715.984 188.58 715.984 187.908C715.984 186.42 715.276 185.28 713.86 184.488C712.444 183.672 710.5 183.264 708.028 183.264H706.804V180.564H708.028C710.26 180.564 712.024 180.216 713.32 179.52C714.64 178.824 715.3 177.756 715.3 176.316C715.3 175.644 715.156 175.032 714.868 174.48C714.58 173.928 714.184 173.472 713.68 173.112C713.2 172.728 712.636 172.44 711.988 172.248C711.364 172.032 710.716 171.924 710.044 171.924C709.276 171.924 708.556 172.02 707.884 172.212C707.236 172.38 706.648 172.62 706.12 172.932C705.592 173.244 705.136 173.616 704.752 174.048C704.392 174.456 704.104 174.888 703.888 175.344L701.764 173.148C702.124 172.524 702.592 171.96 703.168 171.456C703.768 170.952 704.428 170.532 705.148 170.196C705.868 169.836 706.636 169.572 707.452 169.404C708.292 169.212 709.144 169.116 710.008 169.116C711.256 169.116 712.408 169.296 713.464 169.656C714.52 170.016 715.432 170.52 716.2 171.168C716.968 171.792 717.568 172.536 718 173.4C718.432 174.24 718.648 175.164 718.648 176.172C718.648 177.636 718.216 178.848 717.352 179.808C716.488 180.744 715.264 181.404 713.68 181.788C714.52 181.932 715.276 182.208 715.948 182.616C716.644 183.024 717.232 183.516 717.712 184.092C718.216 184.668 718.6 185.316 718.864 186.036C719.128 186.756 719.26 187.512 719.26 188.304C719.26 189.432 719.008 190.428 718.504 191.292C718 192.156 717.328 192.888 716.488 193.488C715.648 194.088 714.676 194.544 713.572 194.856C712.468 195.168 711.316 195.324 710.116 195.324Z" fill="#333333"/>
<circle cx="384" cy="636" r="33.5" fill="white" stroke="#333333" stroke-width="3"/>
<path d="M393.232 639.54C393.232 640.764 392.992 641.916 392.512 642.996C392.056 644.052 391.408 644.988 390.568 645.804C389.752 646.596 388.792 647.22 387.688 647.676C386.584 648.132 385.384 648.36 384.088 648.36C382.72 648.36 381.46 648.108 380.308 647.604C379.18 647.1 378.208 646.38 377.392 645.444C376.576 644.484 375.94 643.332 375.484 641.988C375.052 640.62 374.836 639.072 374.836 637.344C374.836 634.824 375.064 632.628 375.52 630.756C375.976 628.86 376.624 627.288 377.464 626.04C378.304 624.768 379.312 623.82 380.488 623.196C381.664 622.572 382.972 622.26 384.412 622.26C386.068 622.26 387.568 622.656 388.912 623.448C390.28 624.24 391.348 625.356 392.116 626.796L390.172 628.704C389.644 627.576 388.864 626.688 387.832 626.04C386.8 625.368 385.648 625.032 384.376 625.032C383.392 625.032 382.504 625.26 381.712 625.716C380.92 626.148 380.236 626.796 379.66 627.66C379.084 628.524 378.64 629.58 378.328 630.828C378.016 632.052 377.848 633.456 377.824 635.04C378.352 633.792 379.204 632.796 380.38 632.052C381.556 631.308 382.9 630.936 384.412 630.936C385.636 630.936 386.788 631.164 387.868 631.62C388.948 632.052 389.884 632.664 390.676 633.456C391.468 634.224 392.092 635.136 392.548 636.192C393.004 637.224 393.232 638.34 393.232 639.54ZM384.124 645.624C384.94 645.624 385.72 645.468 386.464 645.156C387.208 644.82 387.856 644.376 388.408 643.824C388.96 643.272 389.392 642.636 389.704 641.916C390.04 641.172 390.208 640.38 390.208 639.54C390.208 638.724 390.04 637.944 389.704 637.2C389.392 636.456 388.96 635.82 388.408 635.292C387.856 634.74 387.208 634.308 386.464 633.996C385.72 633.66 384.94 633.492 384.124 633.492C383.284 633.492 382.492 633.66 381.748 633.996C381.028 634.308 380.392 634.74 379.84 635.292C379.288 635.82 378.844 636.456 378.508 637.2C378.196 637.944 378.04 638.724 378.04 639.54C378.04 640.38 378.196 641.172 378.508 641.916C378.844 642.636 379.288 643.272 379.84 643.824C380.392 644.376 381.028 644.82 381.748 645.156C382.492 645.468 383.284 645.624 384.124 645.624Z" fill="#333333"/>
<circle cx="711" cy="636" r="33.5" fill="white" stroke="#333333" stroke-width="3"/>
<path d="M714.256 625.356H701.152V622.44H719.296L706.408 648H702.844L714.256 625.356Z" fill="#333333"/>
<circle cx="57.9999" cy="487" r="33.5" fill="white" stroke="#333333" stroke-width="3"/>
<path d="M57.2959 482.692C58.4719 482.692 59.5639 482.896 60.5719 483.304C61.6039 483.688 62.4919 484.24 63.2359 484.96C63.9799 485.68 64.5679 486.544 64.9999 487.552C65.4319 488.536 65.6479 489.628 65.6479 490.828C65.6479 492.1 65.4079 493.264 64.9279 494.32C64.4719 495.352 63.8359 496.252 63.0199 497.02C62.2279 497.764 61.2799 498.34 60.1759 498.748C59.0719 499.156 57.8839 499.36 56.6119 499.36C54.7879 499.36 53.1439 498.928 51.6799 498.064C50.2399 497.2 49.1359 496.036 48.3679 494.572L50.3479 492.844C51.0199 493.972 51.9079 494.872 53.0119 495.544C54.1399 496.192 55.3519 496.516 56.6479 496.516C57.4639 496.516 58.2199 496.384 58.9159 496.12C59.6359 495.832 60.2479 495.448 60.7519 494.968C61.2799 494.464 61.6879 493.876 61.9759 493.204C62.2639 492.508 62.4079 491.74 62.4079 490.9C62.4079 490.108 62.2639 489.376 61.9759 488.704C61.6879 488.032 61.2919 487.456 60.7879 486.976C60.3079 486.472 59.7319 486.088 59.0599 485.824C58.3879 485.56 57.6679 485.428 56.8999 485.428C55.8919 485.428 54.9319 485.656 54.0199 486.112C53.1079 486.568 52.3759 487.216 51.8239 488.056H48.9439C48.9679 487.936 49.0279 487.636 49.1239 487.156C49.2199 486.652 49.3399 486.052 49.4839 485.356C49.6279 484.636 49.7839 483.844 49.9519 482.98C50.1199 482.116 50.2879 481.24 50.4559 480.352C50.8639 478.288 51.3199 475.984 51.8239 473.44H64.2439V476.356L54.1639 476.356L52.6159 484.492C53.6959 483.292 55.2559 482.692 57.2959 482.692Z" fill="#333333"/>
<path d="M121.624 478.912V484.672H119.392V481H105.568L105.544 484.672H103.312L103.336 478.912H104.152C105.208 478.848 105.952 478.016 106.384 476.416C106.816 474.8 107.08 472.528 107.176 469.6L107.344 464.2H119.152V478.912H121.624ZM109.288 469.816C109.208 472.184 109.016 474.144 108.712 475.696C108.424 477.248 107.952 478.32 107.296 478.912H116.776V466.288H109.408L109.288 469.816ZM124.521 468.28H126.825V477.544L134.625 468.28H136.713V481H134.409V471.736L126.633 481H124.521V468.28ZM147.862 474.376C148.71 474.6 149.366 474.96 149.83 475.456C150.294 475.952 150.526 476.568 150.526 477.304C150.526 478.056 150.27 478.728 149.758 479.32C149.246 479.896 148.534 480.352 147.622 480.688C146.726 481.008 145.718 481.168 144.598 481.168C143.654 481.168 142.726 481.048 141.814 480.808C140.918 480.552 140.118 480.192 139.414 479.728L140.11 477.976C140.718 478.36 141.414 478.664 142.198 478.888C142.982 479.096 143.774 479.2 144.574 479.2C145.662 479.2 146.526 479.016 147.166 478.648C147.822 478.264 148.15 477.752 148.15 477.112C148.15 476.52 147.886 476.064 147.358 475.744C146.846 475.424 146.118 475.264 145.174 475.264H142.846V473.608H145.006C145.87 473.608 146.55 473.456 147.046 473.152C147.542 472.848 147.79 472.432 147.79 471.904C147.79 471.328 147.494 470.88 146.902 470.56C146.326 470.24 145.542 470.08 144.55 470.08C143.286 470.08 141.95 470.408 140.542 471.064L139.918 469.288C141.47 468.504 143.094 468.112 144.79 468.112C145.814 468.112 146.734 468.256 147.55 468.544C148.366 468.832 149.006 469.24 149.47 469.768C149.934 470.296 150.166 470.896 150.166 471.568C150.166 472.192 149.958 472.752 149.542 473.248C149.126 473.744 148.566 474.12 147.862 474.376ZM158.565 468.16C160.325 468.16 161.669 468.592 162.597 469.456C163.541 470.32 164.013 471.608 164.013 473.32V481H161.829V479.32C161.445 479.912 160.893 480.368 160.173 480.688C159.469 480.992 158.629 481.144 157.653 481.144C156.229 481.144 155.085 480.8 154.221 480.112C153.373 479.424 152.949 478.52 152.949 477.4C152.949 476.28 153.357 475.384 154.173 474.712C154.989 474.024 156.285 473.68 158.061 473.68H161.709V473.224C161.709 472.232 161.421 471.472 160.845 470.944C160.269 470.416 159.421 470.152 158.301 470.152C157.549 470.152 156.813 470.28 156.093 470.536C155.373 470.776 154.765 471.104 154.269 471.52L153.309 469.792C153.965 469.264 154.749 468.864 155.661 468.592C156.573 468.304 157.541 468.16 158.565 468.16ZM158.037 479.368C158.917 479.368 159.677 479.176 160.317 478.792C160.957 478.392 161.421 477.832 161.709 477.112V475.336H158.157C156.205 475.336 155.229 475.992 155.229 477.304C155.229 477.944 155.477 478.448 155.973 478.816C156.469 479.184 157.157 479.368 158.037 479.368ZM168.162 468.28H170.466V477.544L178.266 468.28H180.354V481H178.05V471.736L170.274 481H168.162V468.28ZM174.114 466.624C172.93 466.624 172.01 466.344 171.354 465.784C170.698 465.208 170.362 464.384 170.346 463.312H171.906C171.922 463.904 172.122 464.384 172.506 464.752C172.906 465.104 173.434 465.28 174.09 465.28C174.746 465.28 175.274 465.104 175.674 464.752C176.074 464.384 176.282 463.904 176.298 463.312H177.906C177.89 464.384 177.546 465.208 176.874 465.784C176.202 466.344 175.282 466.624 174.114 466.624ZM184.826 468.28H187.13V473.68H194.378V468.28H196.682V481H194.378V475.672H187.13V481H184.826V468.28ZM105.232 497.28H107.536V506.544L115.336 497.28H117.424V510H115.12V500.736L107.344 510H105.232V497.28ZM140.125 497.28V510H137.821V499.296H130.645V510H128.341V497.28H140.125ZM151.328 497.16C152.56 497.16 153.664 497.432 154.64 497.976C155.616 498.52 156.376 499.28 156.92 500.256C157.48 501.232 157.76 502.36 157.76 503.64C157.76 504.92 157.48 506.056 156.92 507.048C156.376 508.024 155.616 508.784 154.64 509.328C153.664 509.872 152.56 510.144 151.328 510.144C150.416 510.144 149.576 509.968 148.808 509.616C148.056 509.264 147.416 508.752 146.888 508.08V514.656H144.584V497.28H146.792V499.296C147.304 498.592 147.952 498.064 148.736 497.712C149.52 497.344 150.384 497.16 151.328 497.16ZM151.136 508.128C151.952 508.128 152.68 507.944 153.32 507.576C153.976 507.192 154.488 506.664 154.856 505.992C155.24 505.304 155.432 504.52 155.432 503.64C155.432 502.76 155.24 501.984 154.856 501.312C154.488 500.624 153.976 500.096 153.32 499.728C152.68 499.36 151.952 499.176 151.136 499.176C150.336 499.176 149.608 499.368 148.952 499.752C148.312 500.12 147.8 500.64 147.416 501.312C147.048 501.984 146.864 502.76 146.864 503.64C146.864 504.52 147.048 505.304 147.416 505.992C147.784 506.664 148.296 507.192 148.952 507.576C149.608 507.944 150.336 508.128 151.136 508.128ZM165.526 497.16C167.286 497.16 168.63 497.592 169.558 498.456C170.502 499.32 170.974 500.608 170.974 502.32V510H168.79V508.32C168.406 508.912 167.854 509.368 167.134 509.688C166.43 509.992 165.59 510.144 164.614 510.144C163.19 510.144 162.046 509.8 161.182 509.112C160.334 508.424 159.91 507.52 159.91 506.4C159.91 505.28 160.318 504.384 161.134 503.712C161.95 503.024 163.246 502.68 165.022 502.68H168.67V502.224C168.67 501.232 168.382 500.472 167.806 499.944C167.23 499.416 166.382 499.152 165.262 499.152C164.51 499.152 163.774 499.28 163.054 499.536C162.334 499.776 161.726 500.104 161.23 500.52L160.27 498.792C160.926 498.264 161.71 497.864 162.622 497.592C163.534 497.304 164.502 497.16 165.526 497.16ZM164.998 508.368C165.878 508.368 166.638 508.176 167.278 507.792C167.918 507.392 168.382 506.832 168.67 506.112V504.336H165.118C163.166 504.336 162.19 504.992 162.19 506.304C162.19 506.944 162.438 507.448 162.934 507.816C163.43 508.184 164.118 508.368 164.998 508.368ZM183.787 503.4C185.435 503.816 186.259 504.848 186.259 506.496C186.259 507.616 185.835 508.48 184.987 509.088C184.155 509.696 182.907 510 181.243 510H175.123V497.28H181.027C182.531 497.28 183.707 497.568 184.555 498.144C185.403 498.704 185.827 499.504 185.827 500.544C185.827 501.216 185.643 501.8 185.275 502.296C184.923 502.776 184.427 503.144 183.787 503.4ZM177.379 502.752H180.835C181.715 502.752 182.379 502.592 182.827 502.272C183.291 501.952 183.523 501.488 183.523 500.88C183.523 499.664 182.627 499.056 180.835 499.056H177.379V502.752ZM181.075 508.224C182.035 508.224 182.755 508.072 183.235 507.768C183.715 507.464 183.955 506.992 183.955 506.352C183.955 505.696 183.731 505.208 183.283 504.888C182.851 504.568 182.163 504.408 181.219 504.408H177.379V508.224H181.075ZM194.809 504.624H192.169V510H189.865V497.28H192.169V502.656H194.857L198.985 497.28H201.457L196.633 503.4L201.793 510H199.081L194.809 504.624ZM204.209 497.28H206.513V506.544L214.313 497.28H216.401V510H214.097V500.736L206.321 510H204.209V497.28Z" fill="#333333"/>
<circle cx="383" cy="336" r="33.5" fill="white" stroke="#333333" stroke-width="3"/>
<path d="M382.996 348V341.484H370.972V338.64L383.968 322.44H386.164V338.604H389.332V341.484H386.164V348H382.996ZM374.284 338.604H383.32V327.3L374.284 338.604Z" fill="#333333"/>
<path d="M314.128 404.192C312.448 404.192 310.928 403.824 309.568 403.088C308.224 402.336 307.168 401.312 306.4 400.016C305.632 398.704 305.248 397.232 305.248 395.6C305.248 393.968 305.632 392.504 306.4 391.208C307.168 389.896 308.232 388.872 309.592 388.136C310.952 387.384 312.472 387.008 314.152 387.008C315.464 387.008 316.664 387.232 317.752 387.68C318.84 388.112 319.768 388.76 320.536 389.624L318.976 391.136C317.712 389.808 316.136 389.144 314.248 389.144C313 389.144 311.872 389.424 310.864 389.984C309.856 390.544 309.064 391.32 308.488 392.312C307.928 393.288 307.648 394.384 307.648 395.6C307.648 396.816 307.928 397.92 308.488 398.912C309.064 399.888 309.856 400.656 310.864 401.216C311.872 401.776 313 402.056 314.248 402.056C316.12 402.056 317.696 401.384 318.976 400.04L320.536 401.552C319.768 402.416 318.832 403.072 317.728 403.52C316.64 403.968 315.44 404.192 314.128 404.192ZM328.368 404.144C327.104 404.144 325.968 403.864 324.96 403.304C323.952 402.744 323.16 401.976 322.584 401C322.024 400.008 321.744 398.888 321.744 397.64C321.744 396.392 322.024 395.28 322.584 394.304C323.16 393.312 323.952 392.544 324.96 392C325.968 391.44 327.104 391.16 328.368 391.16C329.632 391.16 330.76 391.44 331.752 392C332.76 392.544 333.544 393.312 334.104 394.304C334.68 395.28 334.968 396.392 334.968 397.64C334.968 398.888 334.68 400.008 334.104 401C333.544 401.976 332.76 402.744 331.752 403.304C330.76 403.864 329.632 404.144 328.368 404.144ZM328.368 402.128C329.184 402.128 329.912 401.944 330.552 401.576C331.208 401.192 331.72 400.664 332.088 399.992C332.456 399.304 332.64 398.52 332.64 397.64C332.64 396.76 332.456 395.984 332.088 395.312C331.72 394.624 331.208 394.096 330.552 393.728C329.912 393.36 329.184 393.176 328.368 393.176C327.552 393.176 326.816 393.36 326.16 393.728C325.52 394.096 325.008 394.624 324.624 395.312C324.256 395.984 324.072 396.76 324.072 397.64C324.072 398.52 324.256 399.304 324.624 399.992C325.008 400.664 325.52 401.192 326.16 401.576C326.816 401.944 327.552 402.128 328.368 402.128ZM345.042 397.376C345.89 397.6 346.546 397.96 347.01 398.456C347.474 398.952 347.706 399.568 347.706 400.304C347.706 401.056 347.45 401.728 346.938 402.32C346.426 402.896 345.714 403.352 344.802 403.688C343.906 404.008 342.898 404.168 341.778 404.168C340.834 404.168 339.906 404.048 338.994 403.808C338.098 403.552 337.298 403.192 336.594 402.728L337.29 400.976C337.898 401.36 338.594 401.664 339.378 401.888C340.162 402.096 340.954 402.2 341.754 402.2C342.842 402.2 343.706 402.016 344.346 401.648C345.002 401.264 345.33 400.752 345.33 400.112C345.33 399.52 345.066 399.064 344.538 398.744C344.026 398.424 343.298 398.264 342.354 398.264H340.026V396.608H342.186C343.05 396.608 343.73 396.456 344.226 396.152C344.722 395.848 344.97 395.432 344.97 394.904C344.97 394.328 344.674 393.88 344.082 393.56C343.506 393.24 342.722 393.08 341.73 393.08C340.466 393.08 339.13 393.408 337.722 394.064L337.098 392.288C338.65 391.504 340.274 391.112 341.97 391.112C342.994 391.112 343.914 391.256 344.73 391.544C345.546 391.832 346.186 392.24 346.65 392.768C347.114 393.296 347.346 393.896 347.346 394.568C347.346 395.192 347.138 395.752 346.722 396.248C346.306 396.744 345.746 397.12 345.042 397.376ZM364.145 401.984V406.952H361.985V404H351.353V406.952H349.169V401.984H349.841C350.657 401.936 351.217 401.36 351.521 400.256C351.825 399.152 352.033 397.592 352.145 395.576L352.337 391.28H362.201V401.984H364.145ZM354.257 395.744C354.193 397.344 354.057 398.672 353.849 399.728C353.657 400.768 353.297 401.52 352.769 401.984H359.897V393.296H354.377L354.257 395.744ZM371.682 391.16C373.442 391.16 374.786 391.592 375.714 392.456C376.658 393.32 377.13 394.608 377.13 396.32V404H374.946V402.32C374.562 402.912 374.01 403.368 373.29 403.688C372.586 403.992 371.746 404.144 370.77 404.144C369.346 404.144 368.202 403.8 367.338 403.112C366.49 402.424 366.066 401.52 366.066 400.4C366.066 399.28 366.474 398.384 367.29 397.712C368.106 397.024 369.402 396.68 371.178 396.68H374.826V396.224C374.826 395.232 374.538 394.472 373.962 393.944C373.386 393.416 372.538 393.152 371.418 393.152C370.666 393.152 369.93 393.28 369.21 393.536C368.49 393.776 367.882 394.104 367.386 394.52L366.426 392.792C367.082 392.264 367.866 391.864 368.778 391.592C369.69 391.304 370.658 391.16 371.682 391.16ZM371.154 402.368C372.034 402.368 372.794 402.176 373.434 401.792C374.074 401.392 374.538 400.832 374.826 400.112V398.336H371.274C369.322 398.336 368.346 398.992 368.346 400.304C368.346 400.944 368.594 401.448 369.09 401.816C369.586 402.184 370.274 402.368 371.154 402.368ZM381.279 391.28H383.583V396.68H390.831V391.28H393.135V404H390.831V398.672H383.583V404H381.279V391.28ZM397.615 391.28H399.919V400.544L407.719 391.28H409.807V404H407.503V394.736L399.727 404H397.615V391.28ZM425.775 397.712C425.775 397.888 425.759 398.12 425.727 398.408H415.407C415.551 399.528 416.039 400.432 416.871 401.12C417.719 401.792 418.767 402.128 420.015 402.128C421.535 402.128 422.759 401.616 423.687 400.592L424.959 402.08C424.383 402.752 423.663 403.264 422.799 403.616C421.951 403.968 420.999 404.144 419.943 404.144C418.599 404.144 417.407 403.872 416.367 403.328C415.327 402.768 414.519 401.992 413.943 401C413.383 400.008 413.103 398.888 413.103 397.64C413.103 396.408 413.375 395.296 413.919 394.304C414.479 393.312 415.239 392.544 416.199 392C417.175 391.44 418.271 391.16 419.487 391.16C420.703 391.16 421.783 391.44 422.727 392C423.687 392.544 424.431 393.312 424.959 394.304C425.503 395.296 425.775 396.432 425.775 397.712ZM419.487 393.104C418.383 393.104 417.455 393.44 416.703 394.112C415.967 394.784 415.535 395.664 415.407 396.752H423.567C423.439 395.68 422.999 394.808 422.247 394.136C421.511 393.448 420.591 393.104 419.487 393.104ZM447.723 389.288H441.963V404H439.611V389.288H433.875V387.2H447.723V389.288ZM458.679 395.24C459.735 395.528 460.559 396.032 461.151 396.752C461.743 397.456 462.039 398.304 462.039 399.296C462.039 400.288 461.719 401.16 461.079 401.912C460.455 402.648 459.615 403.216 458.559 403.616C457.519 404 456.383 404.192 455.151 404.192C454.031 404.192 452.919 404.024 451.815 403.688C450.711 403.352 449.703 402.848 448.791 402.176L449.631 400.4C450.367 400.976 451.191 401.408 452.103 401.696C453.015 401.984 453.935 402.128 454.863 402.128C456.207 402.128 457.335 401.848 458.247 401.288C459.159 400.712 459.615 399.928 459.615 398.936C459.615 398.088 459.271 397.44 458.583 396.992C457.895 396.528 456.927 396.296 455.679 396.296H451.935V394.352H455.511C456.583 394.352 457.415 394.136 458.007 393.704C458.615 393.256 458.919 392.64 458.919 391.856C458.919 390.976 458.527 390.28 457.743 389.768C456.959 389.256 455.967 389 454.767 389C453.983 389 453.183 389.112 452.367 389.336C451.567 389.56 450.807 389.896 450.087 390.344L449.319 388.376C450.167 387.896 451.063 387.536 452.007 387.296C452.951 387.056 453.895 386.936 454.839 386.936C456.023 386.936 457.111 387.12 458.103 387.488C459.095 387.856 459.879 388.392 460.455 389.096C461.047 389.8 461.343 390.624 461.343 391.568C461.343 392.416 461.103 393.16 460.623 393.8C460.159 394.44 459.511 394.92 458.679 395.24Z" fill="#333333"/>
<path d="M320.168 687.2C322.344 687.2 324.056 687.72 325.304 688.76C326.552 689.8 327.176 691.232 327.176 693.056C327.176 694.88 326.552 696.312 325.304 697.352C324.056 698.392 322.344 698.912 320.168 698.912H316.016V704H313.616V687.2H320.168ZM320.096 696.824C321.616 696.824 322.776 696.504 323.576 695.864C324.376 695.208 324.776 694.272 324.776 693.056C324.776 691.84 324.376 690.912 323.576 690.272C322.776 689.616 321.616 689.288 320.096 689.288H316.016V696.824H320.096ZM334.549 691.16C336.309 691.16 337.653 691.592 338.581 692.456C339.525 693.32 339.997 694.608 339.997 696.32V704H337.813V702.32C337.429 702.912 336.877 703.368 336.157 703.688C335.453 703.992 334.613 704.144 333.637 704.144C332.213 704.144 331.069 703.8 330.205 703.112C329.357 702.424 328.933 701.52 328.933 700.4C328.933 699.28 329.341 698.384 330.157 697.712C330.973 697.024 332.269 696.68 334.045 696.68H337.693V696.224C337.693 695.232 337.405 694.472 336.829 693.944C336.253 693.416 335.405 693.152 334.285 693.152C333.533 693.152 332.797 693.28 332.077 693.536C331.357 693.776 330.749 694.104 330.253 694.52L329.293 692.792C329.949 692.264 330.733 691.864 331.645 691.592C332.557 691.304 333.525 691.16 334.549 691.16ZM334.021 702.368C334.901 702.368 335.661 702.176 336.301 701.792C336.941 701.392 337.405 700.832 337.693 700.112V698.336H334.141C332.189 698.336 331.213 698.992 331.213 700.304C331.213 700.944 331.461 701.448 331.957 701.816C332.453 702.184 333.141 702.368 334.021 702.368ZM350.823 697.376C351.671 697.6 352.327 697.96 352.791 698.456C353.255 698.952 353.487 699.568 353.487 700.304C353.487 701.056 353.231 701.728 352.719 702.32C352.207 702.896 351.495 703.352 350.583 703.688C349.687 704.008 348.679 704.168 347.559 704.168C346.615 704.168 345.687 704.048 344.775 703.808C343.879 703.552 343.079 703.192 342.375 702.728L343.071 700.976C343.679 701.36 344.375 701.664 345.159 701.888C345.943 702.096 346.735 702.2 347.535 702.2C348.623 702.2 349.487 702.016 350.127 701.648C350.783 701.264 351.111 700.752 351.111 700.112C351.111 699.52 350.847 699.064 350.319 698.744C349.807 698.424 349.079 698.264 348.135 698.264H345.807V696.608H347.967C348.831 696.608 349.511 696.456 350.007 696.152C350.503 695.848 350.751 695.432 350.751 694.904C350.751 694.328 350.455 693.88 349.863 693.56C349.287 693.24 348.503 693.08 347.511 693.08C346.247 693.08 344.911 693.408 343.503 694.064L342.879 692.288C344.431 691.504 346.055 691.112 347.751 691.112C348.775 691.112 349.695 691.256 350.511 691.544C351.327 691.832 351.967 692.24 352.431 692.768C352.895 693.296 353.127 693.896 353.127 694.568C353.127 695.192 352.919 695.752 352.503 696.248C352.087 696.744 351.527 697.12 350.823 697.376ZM363.734 691.16C364.966 691.16 366.07 691.432 367.046 691.976C368.022 692.52 368.782 693.28 369.326 694.256C369.886 695.232 370.166 696.36 370.166 697.64C370.166 698.92 369.886 700.056 369.326 701.048C368.782 702.024 368.022 702.784 367.046 703.328C366.07 703.872 364.966 704.144 363.734 704.144C362.822 704.144 361.982 703.968 361.214 703.616C360.462 703.264 359.822 702.752 359.294 702.08V708.656H356.99V691.28H359.198V693.296C359.71 692.592 360.358 692.064 361.142 691.712C361.926 691.344 362.79 691.16 363.734 691.16ZM363.542 702.128C364.358 702.128 365.086 701.944 365.726 701.576C366.382 701.192 366.894 700.664 367.262 699.992C367.646 699.304 367.838 698.52 367.838 697.64C367.838 696.76 367.646 695.984 367.262 695.312C366.894 694.624 366.382 694.096 365.726 693.728C365.086 693.36 364.358 693.176 363.542 693.176C362.742 693.176 362.014 693.368 361.358 693.752C360.718 694.12 360.206 694.64 359.822 695.312C359.454 695.984 359.27 696.76 359.27 697.64C359.27 698.52 359.454 699.304 359.822 699.992C360.19 700.664 360.702 701.192 361.358 701.576C362.014 701.944 362.742 702.128 363.542 702.128ZM377.932 691.16C379.692 691.16 381.036 691.592 381.964 692.456C382.908 693.32 383.38 694.608 383.38 696.32V704H381.196V702.32C380.812 702.912 380.26 703.368 379.54 703.688C378.836 703.992 377.996 704.144 377.02 704.144C375.596 704.144 374.452 703.8 373.588 703.112C372.74 702.424 372.316 701.52 372.316 700.4C372.316 699.28 372.724 698.384 373.54 697.712C374.356 697.024 375.652 696.68 377.428 696.68H381.076V696.224C381.076 695.232 380.788 694.472 380.212 693.944C379.636 693.416 378.788 693.152 377.668 693.152C376.916 693.152 376.18 693.28 375.46 693.536C374.74 693.776 374.132 694.104 373.636 694.52L372.676 692.792C373.332 692.264 374.116 691.864 375.028 691.592C375.94 691.304 376.908 691.16 377.932 691.16ZM377.404 702.368C378.284 702.368 379.044 702.176 379.684 701.792C380.324 701.392 380.788 700.832 381.076 700.112V698.336H377.524C375.572 698.336 374.596 698.992 374.596 700.304C374.596 700.944 374.844 701.448 375.34 701.816C375.836 702.184 376.524 702.368 377.404 702.368ZM394.009 691.712C395.193 691.712 396.249 691.976 397.177 692.504C398.105 693.032 398.825 693.768 399.337 694.712C399.865 695.64 400.129 696.704 400.129 697.904C400.129 699.136 399.849 700.232 399.289 701.192C398.745 702.136 397.969 702.872 396.961 703.4C395.969 703.928 394.833 704.192 393.553 704.192C391.393 704.192 389.721 703.456 388.537 701.984C387.369 700.496 386.785 698.408 386.785 695.72C386.785 693.112 387.321 691.072 388.393 689.6C389.465 688.112 391.105 687.128 393.313 686.648L399.121 685.352L399.457 687.464L394.105 688.616C392.441 688.984 391.201 689.608 390.385 690.488C389.569 691.368 389.105 692.632 388.993 694.28C389.537 693.464 390.241 692.832 391.105 692.384C391.969 691.936 392.937 691.712 394.009 691.712ZM393.601 702.272C394.417 702.272 395.137 702.088 395.761 701.72C396.401 701.352 396.897 700.848 397.249 700.208C397.601 699.552 397.777 698.808 397.777 697.976C397.777 696.712 397.393 695.696 396.625 694.928C395.857 694.16 394.849 693.776 393.601 693.776C392.353 693.776 391.337 694.16 390.553 694.928C389.785 695.696 389.401 696.712 389.401 697.976C389.401 698.808 389.577 699.552 389.929 700.208C390.297 700.848 390.801 701.352 391.441 701.72C392.081 702.088 392.801 702.272 393.601 702.272ZM408.868 704.144C407.604 704.144 406.468 703.864 405.46 703.304C404.452 702.744 403.66 701.976 403.084 701C402.524 700.008 402.244 698.888 402.244 697.64C402.244 696.392 402.524 695.28 403.084 694.304C403.66 693.312 404.452 692.544 405.46 692C406.468 691.44 407.604 691.16 408.868 691.16C410.132 691.16 411.26 691.44 412.252 692C413.26 692.544 414.044 693.312 414.604 694.304C415.18 695.28 415.468 696.392 415.468 697.64C415.468 698.888 415.18 700.008 414.604 701C414.044 701.976 413.26 702.744 412.252 703.304C411.26 703.864 410.132 704.144 408.868 704.144ZM408.868 702.128C409.684 702.128 410.412 701.944 411.052 701.576C411.708 701.192 412.22 700.664 412.588 699.992C412.956 699.304 413.14 698.52 413.14 697.64C413.14 696.76 412.956 695.984 412.588 695.312C412.22 694.624 411.708 694.096 411.052 693.728C410.412 693.36 409.684 693.176 408.868 693.176C408.052 693.176 407.316 693.36 406.66 693.728C406.02 694.096 405.508 694.624 405.124 695.312C404.756 695.984 404.572 696.76 404.572 697.64C404.572 698.52 404.756 699.304 405.124 699.992C405.508 700.664 406.02 701.192 406.66 701.576C407.316 701.944 408.052 702.128 408.868 702.128ZM427.806 693.296H423.15V704H420.846V693.296H416.19V691.28H427.806V693.296ZM435.106 698.624H432.466V704H430.162V691.28H432.466V696.656H435.154L439.282 691.28H441.754L436.93 697.4L442.09 704H439.378L435.106 698.624ZM448.807 691.16C450.567 691.16 451.911 691.592 452.839 692.456C453.783 693.32 454.255 694.608 454.255 696.32V704H452.071V702.32C451.687 702.912 451.135 703.368 450.415 703.688C449.711 703.992 448.871 704.144 447.895 704.144C446.471 704.144 445.327 703.8 444.463 703.112C443.615 702.424 443.191 701.52 443.191 700.4C443.191 699.28 443.599 698.384 444.415 697.712C445.231 697.024 446.527 696.68 448.303 696.68H451.951V696.224C451.951 695.232 451.663 694.472 451.087 693.944C450.511 693.416 449.663 693.152 448.543 693.152C447.791 693.152 447.055 693.28 446.335 693.536C445.615 693.776 445.007 694.104 444.511 694.52L443.551 692.792C444.207 692.264 444.991 691.864 445.903 691.592C446.815 691.304 447.783 691.16 448.807 691.16ZM448.279 702.368C449.159 702.368 449.919 702.176 450.559 701.792C451.199 701.392 451.663 700.832 451.951 700.112V698.336H448.399C446.447 698.336 445.471 698.992 445.471 700.304C445.471 700.944 445.719 701.448 446.215 701.816C446.711 702.184 447.399 702.368 448.279 702.368Z" fill="#333333"/>
<path d="M771.032 629.192C769.352 629.192 767.832 628.824 766.472 628.088C765.128 627.336 764.072 626.312 763.304 625.016C762.536 623.704 762.152 622.232 762.152 620.6C762.152 618.968 762.536 617.504 763.304 616.208C764.072 614.896 765.136 613.872 766.496 613.136C767.856 612.384 769.376 612.008 771.056 612.008C772.368 612.008 773.568 612.232 774.656 612.68C775.744 613.112 776.672 613.76 777.44 614.624L775.88 616.136C774.616 614.808 773.04 614.144 771.152 614.144C769.904 614.144 768.776 614.424 767.768 614.984C766.76 615.544 765.968 616.32 765.392 617.312C764.832 618.288 764.552 619.384 764.552 620.6C764.552 621.816 764.832 622.92 765.392 623.912C765.968 624.888 766.76 625.656 767.768 626.216C768.776 626.776 769.904 627.056 771.152 627.056C773.024 627.056 774.6 626.384 775.88 625.04L777.44 626.552C776.672 627.416 775.736 628.072 774.632 628.52C773.544 628.968 772.344 629.192 771.032 629.192ZM792.949 626.984V631.952H790.789V629H780.157V631.952H777.973V626.984H778.645C779.461 626.936 780.021 626.36 780.325 625.256C780.629 624.152 780.837 622.592 780.949 620.576L781.141 616.28H791.005V626.984H792.949ZM783.061 620.744C782.997 622.344 782.861 623.672 782.653 624.728C782.461 625.768 782.101 626.52 781.573 626.984H788.701V618.296H783.181L783.061 620.744ZM800.487 616.16C802.247 616.16 803.591 616.592 804.519 617.456C805.463 618.32 805.935 619.608 805.935 621.32V629H803.751V627.32C803.367 627.912 802.815 628.368 802.095 628.688C801.391 628.992 800.551 629.144 799.575 629.144C798.151 629.144 797.007 628.8 796.143 628.112C795.295 627.424 794.871 626.52 794.871 625.4C794.871 624.28 795.279 623.384 796.095 622.712C796.911 622.024 798.207 621.68 799.983 621.68H803.631V621.224C803.631 620.232 803.343 619.472 802.767 618.944C802.191 618.416 801.343 618.152 800.223 618.152C799.471 618.152 798.735 618.28 798.015 618.536C797.295 618.776 796.687 619.104 796.191 619.52L795.231 617.792C795.887 617.264 796.671 616.864 797.583 616.592C798.495 616.304 799.463 616.16 800.487 616.16ZM799.959 627.368C800.839 627.368 801.599 627.176 802.239 626.792C802.879 626.392 803.343 625.832 803.631 625.112V623.336H800.079C798.127 623.336 797.151 623.992 797.151 625.304C797.151 625.944 797.399 626.448 797.895 626.816C798.391 627.184 799.079 627.368 799.959 627.368ZM820.236 616.28V629H817.932V623.864C816.556 624.504 815.188 624.824 813.828 624.824C812.244 624.824 811.02 624.456 810.156 623.72C809.292 622.984 808.86 621.88 808.86 620.408V616.28H811.164V620.264C811.164 621.144 811.436 621.808 811.98 622.256C812.54 622.704 813.316 622.928 814.308 622.928C815.428 622.928 816.636 622.648 817.932 622.088V616.28H820.236ZM829.245 616.16C831.005 616.16 832.349 616.592 833.277 617.456C834.221 618.32 834.693 619.608 834.693 621.32V629H832.509V627.32C832.125 627.912 831.573 628.368 830.853 628.688C830.149 628.992 829.309 629.144 828.333 629.144C826.909 629.144 825.765 628.8 824.901 628.112C824.053 627.424 823.629 626.52 823.629 625.4C823.629 624.28 824.037 623.384 824.853 622.712C825.669 622.024 826.965 621.68 828.741 621.68H832.389V621.224C832.389 620.232 832.101 619.472 831.525 618.944C830.949 618.416 830.101 618.152 828.981 618.152C828.229 618.152 827.493 618.28 826.773 618.536C826.053 618.776 825.445 619.104 824.949 619.52L823.989 617.792C824.645 617.264 825.429 616.864 826.341 616.592C827.253 616.304 828.221 616.16 829.245 616.16ZM828.717 627.368C829.597 627.368 830.357 627.176 830.997 626.792C831.637 626.392 832.101 625.832 832.389 625.112V623.336H828.837C826.885 623.336 825.909 623.992 825.909 625.304C825.909 625.944 826.157 626.448 826.653 626.816C827.149 627.184 827.837 627.368 828.717 627.368ZM775.016 645.28V658H772.712V647.296H765.536V658H763.232V645.28H775.016ZM786.218 645.16C787.45 645.16 788.554 645.432 789.53 645.976C790.506 646.52 791.266 647.28 791.81 648.256C792.37 649.232 792.65 650.36 792.65 651.64C792.65 652.92 792.37 654.056 791.81 655.048C791.266 656.024 790.506 656.784 789.53 657.328C788.554 657.872 787.45 658.144 786.218 658.144C785.306 658.144 784.466 657.968 783.698 657.616C782.946 657.264 782.306 656.752 781.778 656.08V662.656H779.474V645.28H781.682V647.296C782.194 646.592 782.842 646.064 783.626 645.712C784.41 645.344 785.274 645.16 786.218 645.16ZM786.026 656.128C786.842 656.128 787.57 655.944 788.21 655.576C788.866 655.192 789.378 654.664 789.746 653.992C790.13 653.304 790.322 652.52 790.322 651.64C790.322 650.76 790.13 649.984 789.746 649.312C789.378 648.624 788.866 648.096 788.21 647.728C787.57 647.36 786.842 647.176 786.026 647.176C785.226 647.176 784.498 647.368 783.842 647.752C783.202 648.12 782.69 648.64 782.306 649.312C781.938 649.984 781.754 650.76 781.754 651.64C781.754 652.52 781.938 653.304 782.306 653.992C782.674 654.664 783.186 655.192 783.842 655.576C784.498 655.944 785.226 656.128 786.026 656.128ZM801.446 658.144C800.182 658.144 799.046 657.864 798.038 657.304C797.03 656.744 796.238 655.976 795.662 655C795.102 654.008 794.822 652.888 794.822 651.64C794.822 650.392 795.102 649.28 795.662 648.304C796.238 647.312 797.03 646.544 798.038 646C799.046 645.44 800.182 645.16 801.446 645.16C802.71 645.16 803.838 645.44 804.83 646C805.838 646.544 806.622 647.312 807.182 648.304C807.758 649.28 808.046 650.392 808.046 651.64C808.046 652.888 807.758 654.008 807.182 655C806.622 655.976 805.838 656.744 804.83 657.304C803.838 657.864 802.71 658.144 801.446 658.144ZM801.446 656.128C802.262 656.128 802.99 655.944 803.63 655.576C804.286 655.192 804.798 654.664 805.166 653.992C805.534 653.304 805.718 652.52 805.718 651.64C805.718 650.76 805.534 649.984 805.166 649.312C804.798 648.624 804.286 648.096 803.63 647.728C802.99 647.36 802.262 647.176 801.446 647.176C800.63 647.176 799.894 647.36 799.238 647.728C798.598 648.096 798.086 648.624 797.702 649.312C797.334 649.984 797.15 650.76 797.15 651.64C797.15 652.52 797.334 653.304 797.702 653.992C798.086 654.664 798.598 655.192 799.238 655.576C799.894 655.944 800.63 656.128 801.446 656.128ZM822.869 651.712C822.869 651.888 822.853 652.12 822.821 652.408H812.501C812.645 653.528 813.133 654.432 813.965 655.12C814.813 655.792 815.861 656.128 817.109 656.128C818.629 656.128 819.853 655.616 820.781 654.592L822.053 656.08C821.477 656.752 820.757 657.264 819.893 657.616C819.045 657.968 818.093 658.144 817.037 658.144C815.693 658.144 814.501 657.872 813.461 657.328C812.421 656.768 811.613 655.992 811.037 655C810.477 654.008 810.197 652.888 810.197 651.64C810.197 650.408 810.469 649.296 811.013 648.304C811.573 647.312 812.333 646.544 813.293 646C814.269 645.44 815.365 645.16 816.581 645.16C817.797 645.16 818.877 645.44 819.821 646C820.781 646.544 821.525 647.312 822.053 648.304C822.597 649.296 822.869 650.432 822.869 651.712ZM816.581 647.104C815.477 647.104 814.549 647.44 813.797 648.112C813.061 648.784 812.629 649.664 812.501 650.752H820.661C820.533 649.68 820.093 648.808 819.341 648.136C818.605 647.448 817.685 647.104 816.581 647.104ZM831.387 652.624H828.747V658H826.443V645.28H828.747V650.656H831.435L835.563 645.28H838.035L833.211 651.4L838.371 658H835.659L831.387 652.624ZM850.056 647.296H845.4V658H843.096V647.296H838.44V645.28H850.056V647.296ZM856.948 645.16C858.708 645.16 860.052 645.592 860.98 646.456C861.924 647.32 862.396 648.608 862.396 650.32V658H860.212V656.32C859.828 656.912 859.276 657.368 858.556 657.688C857.852 657.992 857.012 658.144 856.036 658.144C854.612 658.144 853.468 657.8 852.604 657.112C851.756 656.424 851.332 655.52 851.332 654.4C851.332 653.28 851.74 652.384 852.556 651.712C853.372 651.024 854.668 650.68 856.444 650.68H860.092V650.224C860.092 649.232 859.804 648.472 859.228 647.944C858.652 647.416 857.804 647.152 856.684 647.152C855.932 647.152 855.196 647.28 854.476 647.536C853.756 647.776 853.148 648.104 852.652 648.52L851.692 646.792C852.348 646.264 853.132 645.864 854.044 645.592C854.956 645.304 855.924 645.16 856.948 645.16ZM856.42 656.368C857.3 656.368 858.06 656.176 858.7 655.792C859.34 655.392 859.804 654.832 860.092 654.112V652.336H856.54C854.588 652.336 853.612 652.992 853.612 654.304C853.612 654.944 853.86 655.448 854.356 655.816C854.852 656.184 855.54 656.368 856.42 656.368Z" fill="#333333"/>
</svg>
